<svg width="58" height="69" viewBox="0 0 58 69" fill="none" xmlns="http://www.w3.org/2000/svg">
<path d="M24.9375 43.8438C25.875 43.8438 26.5625 44.0625 27 44.5C27.4375 44.875 27.6562 45.4062 27.6562 46.0938C27.6562 46.9688 27.4375 47.625 27 48.0625C26.5625 48.4375 26.0312 48.6875 25.4062 48.8125C24.7812 48.9375 24.0938 49 23.3438 49C22.5938 49 21.9375 49 21.375 49C18.75 49 16.1562 48.7188 13.5938 48.1562C11.0312 47.5312 8.75 46.625 6.75 45.4375C4.75 44.25 3.125 42.75 1.875 40.9375C0.625 39.125 0 36.9688 0 34.4688C0 31.5312 0.6875 29.0625 2.0625 27.0625C3.5 25 5.28125 23.3438 7.40625 22.0938C9.59375 20.7812 12 19.8438 14.625 19.2812C17.3125 18.7188 19.9375 18.4375 22.5 18.4375C24.125 18.4375 25.375 18.6562 26.25 19.0938C27.125 19.4688 27.5625 20.2188 27.5625 21.3438C27.5625 22.0312 27.375 22.5938 27 23.0312C26.6875 23.4688 26.2188 23.6875 25.5938 23.6875C25.1562 23.6875 24.75 23.6875 24.375 23.6875C24 23.625 23.625 23.5938 23.25 23.5938C21.0625 23.5938 18.9375 23.8125 16.875 24.25C14.875 24.6875 13.0625 25.375 11.4375 26.3125C9.875 27.25 8.59375 28.4688 7.59375 29.9688C6.65625 31.4062 6.1875 33.1562 6.1875 35.2188C6.1875 36.8438 6.6875 38.2188 7.6875 39.3438C8.6875 40.4688 9.96875 41.375 11.5312 42.0625C13.0938 42.75 14.8125 43.25 16.6875 43.5625C18.5625 43.875 20.375 44.0312 22.125 44.0312C22.625 44.0312 23.0938 44.0312 23.5312 44.0312C23.9688 43.9688 24.4375 43.9062 24.9375 43.8438ZM48 0.90625C48.375 0.78125 48.6562 0.71875 48.8438 0.71875C49.0312 0.71875 49.2188 0.75 49.4062 0.8125C49.5938 0.875 49.75 0.90625 49.875 0.90625C50.1875 0.84375 50.4688 0.8125 50.7188 0.8125C50.9688 0.75 51.25 0.71875 51.5625 0.71875C53.6875 0.71875 55.25 1.40625 56.25 2.78125C57.25 4.15625 57.75 5.625 57.75 7.1875C57.75 7.9375 57.5625 8.75 57.1875 9.625C56.875 10.5 56.375 11.3125 55.6875 12.0625C55.0625 12.75 54.25 13.3438 53.25 13.8438C52.3125 14.3437 51.1875 14.5938 49.875 14.5938C49 14.5938 48.1875 14.4062 47.4375 14.0312C46.6875 13.5937 46.0312 13.0312 45.4688 12.3438C44.9062 11.6563 44.4688 10.9063 44.1562 10.0938C43.8438 9.28125 43.6875 8.4375 43.6875 7.5625C43.6875 6.125 44.125 4.75 45 3.4375C45.9375 2.0625 46.9375 1.21875 48 0.90625ZM50.25 5.78125H49.5C49.1875 5.96875 48.9688 6.3125 48.8438 6.8125C48.7812 7.25 48.75 7.59375 48.75 7.84375C48.875 8.34375 49.0938 8.78125 49.4062 9.15625C49.7812 9.46875 50.2188 9.625 50.7188 9.625C51.4688 9.625 52 9.34375 52.3125 8.78125C52.6875 8.15625 52.875 7.59375 52.875 7.09375C52.625 6.09375 52 5.59375 51 5.59375C50.875 5.59375 50.625 5.65625 50.25 5.78125ZM54 20.4062C54.4375 24.5312 54.7812 28.7188 55.0312 32.9688C55.3438 37.2188 55.5 41.3438 55.5 45.3438C55.375 48.0312 55.1562 50.4375 54.8438 52.5625C54.5312 54.75 53.5625 56.8438 51.9375 58.8438C51.0625 59.9688 49.9375 61.0938 48.5625 62.2188C47.25 63.4062 45.8125 64.4688 44.25 65.4062C42.75 66.3438 41.1875 67.125 39.5625 67.75C37.9375 68.375 36.375 68.6875 34.875 68.6875C34.0625 68.6875 33.4062 68.3125 32.9062 67.5625C32.4688 66.8125 32.25 66.125 32.25 65.5C32.25 64.25 32.8125 63.4688 33.9375 63.1562C35.25 62.8438 36.5625 62.3438 37.875 61.6562C39.25 61.0312 40.5625 60.2812 41.8125 59.4062C43.0625 58.5938 44.1875 57.6875 45.1875 56.6875C46.25 55.6875 47.125 54.7188 47.8125 53.7812C48.8125 52.4062 49.4062 50.9375 49.5938 49.375C49.7812 47.8125 49.875 46.2188 49.875 44.5938C49.875 42.9062 49.8438 41.0312 49.7812 38.9688C49.7188 36.9062 49.625 34.8125 49.5 32.6875C49.375 30.5625 49.2188 28.4688 49.0312 26.4062C48.9062 24.3438 48.75 22.4688 48.5625 20.7812C48.5625 20.6562 48.5312 20.5938 48.4688 20.5938C48.4688 20.5312 48.4688 20.4375 48.4688 20.3125C48.4688 19.5 48.75 18.8438 49.3125 18.3438C49.875 17.7812 50.5 17.5 51.1875 17.5C51.8125 17.5 52.4062 17.7188 52.9688 18.1562C53.5312 18.5938 53.875 19.3438 54 20.4062Z" fill="white"/>
</svg>
